HIERARCHY
ROOT Hips
{
	OFFSET 0.000000 0.000000 0.000000
	CHANNELS 6 Xposition Yposition Zposition Zrotation Yrotation Xrotation 
	JOINT LHipJoint
	{
		OFFSET 0.000000 0.000000 0.000000
		CHANNELS 3 Zrotation Yrotation Xrotation
		JOINT LeftUpLeg
		{
			OFFSET 1.363060 -1.794630 0.839290
			CHANNELS 3 Zrotation Yrotation Xrotation
			JOINT LeftLeg
			{
				OFFSET 2.448110 -6.726130 0.000000
				CHANNELS 3 Zrotation Yrotation Xrotation
				JOINT LeftFoot
				{
					OFFSET 2.562200 -7.039590 0.000000
					CHANNELS 3 Zrotation Yrotation Xrotation
					JOINT LeftToeBase
					{
						OFFSET 0.157640 -0.433110 2.322550
						CHANNELS 3 Zrotation Yrotation Xrotation
						End Site
						{
							OFFSET 0.000000 0.000000 0.000000
						}
					}
				}
			}
		}
	}
	JOINT RHipJoint
	{
		OFFSET 0.000000 0.000000 0.000000
		CHANNELS 3 Zrotation Yrotation Xrotation
		JOINT RightUpLeg
		{
			OFFSET -1.305520 -1.794630 0.839290
			CHANNELS 3 Zrotation Yrotation Xrotation
			JOINT RightLeg
			{
				OFFSET -2.542530 -6.985550 0.000000
				CHANNELS 3 Zrotation Yrotation Xrotation
				JOINT RightFoot
				{
					OFFSET -2.568260 -7.056230 0.000000
					CHANNELS 3 Zrotation Yrotation Xrotation
					JOINT RightToeBase
					{
						OFFSET -0.164730 -0.452590 2.363150
						CHANNELS 3 Zrotation Yrotation Xrotation
						End Site
						{
							OFFSET 0.000000 0.000000 0.000000
						}
					}
				}
			}
		}
	}
	JOINT LowerBack
	{
		OFFSET 0.000000 0.000000 0.000000
		CHANNELS 3 Zrotation Yrotation Xrotation
		JOINT Spine
		{
			OFFSET 0.028270 2.035590 -0.193380
			CHANNELS 3 Zrotation Yrotation Xrotation
			JOINT Spine1
			{
				OFFSET 0.056720 2.048850 -0.042750
				CHANNELS 3 Zrotation Yrotation Xrotation
				JOINT Neck
				{
					OFFSET 0.000000 0.000000 0.000000
					CHANNELS 3 Zrotation Yrotation Xrotation
					JOINT Neck1
					{
						OFFSET -0.054170 1.746240 0.172020
						CHANNELS 3 Zrotation Yrotation Xrotation
						JOINT Head
						{
							OFFSET 0.104070 1.761360 -0.123970
							CHANNELS 3 Zrotation Yrotation Xrotation
							End Site
							{
								OFFSET 0.000000 0.000000 0.000000
							}
						}
					}
				}
				JOINT LeftShoulder
				{
					OFFSET 0.000000 0.000000 0.000000
					CHANNELS 3 Zrotation Yrotation Xrotation
					JOINT LeftArm
					{
						OFFSET 3.362410 1.200890 -0.311210
						CHANNELS 3 Zrotation Yrotation Xrotation
						JOINT LeftForeArm
						{
							OFFSET 4.983000 -0.000000 -0.000000
							CHANNELS 3 Zrotation Yrotation Xrotation
							JOINT LeftHand
							{
								OFFSET 3.483560 -0.000000 -0.000000
								CHANNELS 3 Zrotation Yrotation Xrotation
								JOINT LeftFingerBase
								{
									OFFSET 0.000000 0.000000 0.000000
									CHANNELS 3 Zrotation Yrotation Xrotation
									JOINT LeftHandIndex1
									{
										OFFSET 0.715260 -0.000000 -0.000000
										CHANNELS 3 Zrotation Yrotation Xrotation
										End Site
										{
											OFFSET 0.000000 0.000000 0.000000
										}
									}
								}
								JOINT LThumb
								{
									OFFSET 0.000000 0.000000 0.000000
									CHANNELS 3 Zrotation Yrotation Xrotation
									End Site
									{
										OFFSET 0.000000 0.000000 0.000000
									}
								}
							}
						}
					}
				}
				JOINT RightShoulder
				{
					OFFSET 0.000000 0.000000 0.000000
					CHANNELS 3 Zrotation Yrotation Xrotation
					JOINT RightArm
					{
						OFFSET -3.136600 1.374050 -0.404650
						CHANNELS 3 Zrotation Yrotation Xrotation
						JOINT RightForeArm
						{
							OFFSET -5.241900 -0.000000 -0.000000
							CHANNELS 3 Zrotation Yrotation Xrotation
							JOINT RightHand
							{
								OFFSET -3.444170 -0.000000 -0.000000
								CHANNELS 3 Zrotation Yrotation Xrotation
								JOINT RightFingerBase
								{
									OFFSET 0.000000 0.000000 0.000000
									CHANNELS 3 Zrotation Yrotation Xrotation
									JOINT RightHandIndex1
									{
										OFFSET -0.622530 -0.000000 -0.000000
										CHANNELS 3 Zrotation Yrotation Xrotation
										End Site
										{
											OFFSET 0.000000 0.000000 0.000000
										}
									}
								}
								JOINT RThumb
								{
									OFFSET 0.000000 0.000000 0.000000
									CHANNELS 3 Zrotation Yrotation Xrotation
									End Site
									{
										OFFSET 0.000000 0.000000 0.000000
									}
								}
							}
						}
					}
				}
			}
		}
	}
}
MOTION
Frames: 9
Frame Time: 0.008333
-0.071073 16.444595 -24.106456 -177.287227 -63.486213 -175.380180 5.540212 8.439118 -2.331353 -6.851388 -24.628201 -9.648669 -5.757067 -6.384813 29.617491 -6.553165 -19.055045 1.311291 5.279252 -8.749426 -14.061438 15.409770 -6.652974 8.062072 -17.275289 16.708791 -36.515363 -2.573190 1.431147 23.736950 25.744321 11.230068 7.120757 -6.066800 3.969063 -15.612898 -12.332851 -1.147354 2.542498 7.770374 -0.947032 -6.796097 4.283593 -3.092148 11.171442 -4.419095 -0.463396 -16.104854 7.490675 -0.475783 26.887410 -1.604234 11.217682 12.590063 2.068096 -0.677054 11.409805 -83.149306 -49.934727 -1.252173 -14.986943 -10.296542 17.410931 -11.169489 -21.019026 5.292052 0.000001 -0.000001 -0.000001 -0.000000 -0.000000 0.000000 0.000000 0.000000 -0.000000 -4.557820 -4.567081 3.931359 72.901517 12.973641 -7.359018 12.307811 15.145061 16.850598 4.230632 23.202966 4.248050 0.000002 0.000001 -0.000002 -0.000000 0.000000 0.000000 -0.000000 0.000000 -0.000000 
-0.031160 16.449850 -24.297297 -176.324728 -64.205330 -176.101366 5.944407 8.579223 -2.231589 -6.186446 -24.448875 -9.913305 -5.751169 -6.983678 29.212345 -6.952511 -18.616917 2.111367 5.601075 -9.333767 -14.561868 15.486276 -7.183833 7.839222 -15.499825 16.631985 -37.074704 -3.275414 0.667709 25.169994 24.779854 11.613250 6.120704 -6.240665 4.181177 -15.549026 -12.523372 -1.185456 2.621326 7.758360 -0.705595 -6.730480 4.356215 -2.818234 11.439287 -4.297635 -0.405820 -16.404673 7.590024 -0.389989 26.521685 -1.145113 11.259295 12.572723 2.342166 -0.178010 11.443059 -83.056775 -49.939160 -1.772412 -14.830528 -10.243021 17.708164 -10.141268 -21.209901 5.117527 0.000001 -0.000001 -0.000001 -0.000000 -0.000000 -0.000000 -0.000000 -0.000000 0.000000 -4.596303 -4.435716 3.810538 73.145118 13.398606 -7.346842 12.434506 14.879971 15.829997 4.747269 21.226794 3.987347 0.000002 0.000001 -0.000002 -0.000000 0.000000 0.000000 -0.000000 -0.000000 0.000000 
0.007691 16.442643 -24.491592 -175.651847 -65.038271 -176.588230 6.421952 8.801160 -2.253427 -5.824932 -24.638997 -9.937685 -5.577108 -7.157931 28.637685 -7.381008 -18.437936 2.934095 5.447626 -9.073602 -14.294505 14.890257 -7.686296 7.605038 -13.354775 17.162527 -37.371210 -4.020783 -0.098115 26.734406 22.251566 11.895393 4.125034 -7.037593 5.327364 -14.823087 -12.768267 -1.181393 2.693215 7.529515 -0.539267 -6.605153 4.768864 -2.580163 11.048082 -4.410832 -0.340071 -16.075810 7.679973 -0.322690 25.983573 -1.240606 11.276101 12.492736 2.650101 -0.063390 11.249755 -82.962644 -49.079987 -2.584638 -14.747255 -10.259188 17.469389 -9.184468 -20.743806 4.811840 0.000001 -0.000001 -0.000001 0.000000 -0.000000 0.000000 0.000000 0.000000 0.000000 -5.138761 -4.191088 3.772607 73.565425 13.266763 -7.317826 12.631157 14.612049 15.282575 5.856528 20.078990 3.995984 0.000002 0.000001 -0.000002 0.000000 0.000000 -0.000000 0.000000 0.000000 0.000000 
0.052063 16.448048 -24.676577 -175.225395 -66.119074 -176.806490 6.476822 8.533585 -2.374460 -4.999284 -24.958049 -9.942751 -5.389046 -6.896202 27.792775 -8.291091 -18.158347 4.078006 5.505203 -9.094984 -14.477007 14.818412 -7.296043 7.171791 -12.212611 16.716000 -37.077677 -4.094915 -0.925312 27.914688 20.054721 11.467344 2.013941 -8.879627 7.146627 -15.660552 -13.141391 -1.260575 2.984299 7.471215 -0.489912 -6.646605 4.510424 -2.347713 10.847509 -3.960945 -0.307784 -15.991293 7.719088 -0.358882 25.608318 -2.062948 11.455564 12.498076 3.269652 0.140616 11.014919 -82.611707 -48.418796 -3.612600 -14.652272 -10.267815 16.276853 -8.498942 -19.053943 4.294187 0.000001 -0.000001 -0.000001 -0.000000 -0.000000 0.000000 -0.000000 -0.000000 0.000000 -4.890016 -3.949835 3.824140 73.738134 13.486011 -7.387432 12.833443 14.347128 15.519971 6.640672 20.468924 4.230827 0.000002 0.000001 -0.000002 -0.000000 0.000000 0.000000 0.000000 -0.000000 -0.000000 
0.106041 16.448348 -24.861862 -175.141854 -66.836567 -176.602655 6.642717 8.191330 -2.400282 -4.317792 -24.895786 -10.139524 -5.510054 -7.086674 27.160029 -8.453222 -17.442130 4.796495 6.027181 -10.325787 -14.956950 14.934109 -6.811295 6.796460 -11.378248 16.084495 -37.283812 -4.048276 -1.395782 29.399116 18.564539 10.772117 0.155530 -10.885308 8.843021 -17.425135 -13.640193 -1.463244 3.215736 7.345661 -0.436278 -6.657449 4.310476 -2.172026 11.150711 -3.540229 -0.271737 -16.445387 7.657344 -0.332664 25.143137 -2.639972 11.585148 12.623689 3.844054 1.163373 11.041049 -82.336340 -48.611055 -4.692664 -14.682682 -10.230725 15.346988 -7.906178 -17.844335 3.919102 0.000001 -0.000001 -0.000001 0.000000 0.000000 0.000000 -0.000000 0.000000 0.000000 -4.744127 -3.483035 3.751493 73.899105 14.222930 -7.363608 13.090658 14.103292 15.706958 6.345634 21.022912 4.282078 0.000002 0.000001 -0.000002 0.000000 0.000000 0.000000 -0.000000 0.000000 0.000000 
0.166704 16.449550 -25.041892 -175.196809 -67.942482 -176.269509 6.683577 7.868881 -2.631930 -3.803890 -24.962693 -10.302941 -5.499194 -7.115453 26.639700 -7.740106 -16.387072 4.867756 5.762918 -10.649348 -13.619169 15.017422 -6.137743 6.414460 -10.600887 15.211300 -37.023346 -4.210849 -2.165863 29.992297 16.173271 10.452226 -2.117795 -11.045044 9.292374 -16.659058 -14.125171 -1.690007 3.607064 7.246437 -0.461150 -6.750240 4.436755 -2.097086 11.326235 -3.567613 -0.255842 -16.825163 7.644305 -0.266893 24.772237 -2.478094 11.521410 12.630068 3.998611 2.054460 11.383623 -81.928635 -49.064040 -5.526850 -14.493750 -9.697845 14.995900 -7.504229 -17.350839 3.743184 0.000001 -0.000001 -0.000001 0.000000 0.000000 -0.000000 0.000000 0.000000 0.000000 -5.042053 -3.197469 3.647357 74.088596 14.895521 -6.921477 13.173489 13.866405 15.378487 5.850347 20.732598 4.122884 0.000002 0.000001 -0.000002 -0.000000 -0.000000 0.000000 0.000000 0.000000 -0.000000 
0.211574 16.466517 -25.218168 -174.488686 -69.086750 -176.682990 6.651812 7.653307 -2.595900 -2.838746 -25.184178 -10.750260 -5.478287 -7.126925 26.064157 -7.396207 -15.045982 5.033744 5.960609 -11.694411 -13.162472 15.300951 -5.665156 5.916898 -9.669173 14.449517 -36.347077 -4.539173 -3.043645 29.924628 13.497474 10.242410 -3.999093 -10.373752 8.693926 -16.215464 -14.341591 -1.830908 3.880743 7.338563 -0.415168 -6.848691 3.905120 -1.860141 11.303971 -3.098911 -0.211779 -16.903975 7.684868 -0.276064 24.660374 -2.588237 11.645335 12.068339 4.379036 2.441463 11.628096 -81.117213 -49.084135 -6.871281 -14.167107 -9.035650 15.907094 -7.226769 -18.360692 3.907729 0.000001 -0.000001 -0.000001 0.000000 -0.000000 0.000000 0.000000 0.000000 -0.000000 -4.579507 -2.932286 3.613928 74.016818 15.236263 -6.786544 13.263233 13.588160 15.164322 6.292166 20.262028 4.118231 0.000002 0.000001 -0.000002 0.000000 -0.000000 0.000000 0.000000 -0.000000 0.000000 
0.265371 16.473874 -25.400150 -174.060288 -70.128641 -176.785907 6.766179 7.439439 -2.658747 -2.185226 -25.100151 -11.183807 -5.398256 -7.073364 25.455755 -7.224434 -13.884327 5.397395 6.402339 -13.161654 -13.133830 15.700307 -5.372765 5.596450 -8.712544 13.358433 -36.405310 -5.051675 -3.568025 30.252379 12.047575 10.154393 -5.510534 -10.184290 8.316874 -16.662059 -14.682948 -1.910310 4.149822 7.301787 -0.383483 -6.910633 3.549904 -1.617229 11.068426 -2.698357 -0.169005 -16.817531 7.716325 -0.289677 24.389054 -2.498191 11.618580 11.930642 4.865294 2.794954 11.845173 -80.293494 -48.995321 -8.738210 -13.943083 -8.288244 17.893110 -6.306569 -20.713905 4.206948 0.000001 -0.000001 -0.000001 0.000000 -0.000000 0.000000 0.000000 0.000000 0.000000 -4.358054 -2.604902 3.542348 74.052806 15.399651 -6.909270 13.502641 13.263813 15.388449 6.515995 20.682456 4.248309 0.000002 0.000001 -0.000002 0.000000 0.000000 0.000000 0.000000 -0.000000 -0.000000 
0.323003 16.473874 -25.576426 -173.607504 -71.207183 -176.966869 6.953152 7.176399 -2.838594 -1.772825 -24.729944 -11.534749 -5.371189 -7.359230 25.064867 -6.805865 -12.711566 5.617032 6.126043 -13.205466 -12.158317 15.803426 -5.070161 5.285735 -7.451131 12.293267 -36.472247 -5.541271 -3.982841 30.666441 10.959846 9.887143 -7.020599 -10.129033 8.296562 -16.541914 -14.865518 -1.969375 4.548284 7.109759 -0.259087 -6.970952 3.501953 -1.399949 11.262002 -2.613785 -0.225572 -17.198004 7.738202 -0.313028 23.998624 -2.126314 11.198415 12.082821 5.080186 3.212622 12.097848 -79.464123 -49.531219 -10.202144 -13.693218 -7.662447 18.851320 -5.122985 -21.686456 4.159720 0.000001 -0.000001 -0.000001 0.000000 0.000000 -0.000000 0.000000 0.000000 0.000000 -4.452955 -2.717243 3.465380 74.063758 16.094918 -6.926242 13.804294 12.963493 15.426468 6.824757 20.771452 4.329385 0.000002 0.000001 -0.000002 -0.000000 -0.000000 0.000000 -0.000000 -0.000000 0.000000 
